<svg width="160" height="55" viewBox="0 0 160 55" fill="none" xmlns="http://www.w3.org/2000/svg">
<g clip-path="url(#clip0)">
<path fill-rule="evenodd" clip-rule="evenodd" d="M14.399 41.5542C14.3975 41.5557 14.3961 41.5568 14.3943 41.5582C14.4149 41.5781 14.4351 41.5987 14.4558 41.619C14.4612 41.5977 14.4673 41.5781 14.4721 41.5546C14.4474 41.5531 14.4236 41.5553 14.399 41.5542Z" fill="#FFECED"/>
<mask id="mask0" mask-type="alpha" maskUnits="userSpaceOnUse" x="1" y="5" width="160" height="50">
<path d="M1.07094 5.87036H160.204V55H1.07094V5.87036Z" fill="white"/>
</mask>
<g mask="url(#mask0)">
<path fill-rule="evenodd" clip-rule="evenodd" d="M130.311 36.6441C130.294 36.7092 130.175 36.7982 130.109 36.7924C129.32 36.7248 128.449 35.7138 128.455 34.8747C128.456 34.7549 128.516 34.6355 128.547 34.5161C128.605 34.6453 128.648 34.7824 128.721 34.9018C128.874 35.1504 129.032 35.3976 129.212 35.6266C129.261 35.6885 129.393 35.6845 129.488 35.7109C129.498 35.6262 129.478 35.5133 129.525 35.4627C129.786 35.1815 129.04 34.963 129.454 34.7821C129.594 34.7213 130.002 35.0343 130.138 35.2644C130.302 35.5387 130.305 35.9077 130.321 35.9776C130.321 36.3807 130.344 36.5196 130.311 36.6441ZM128.272 40.5606C128.25 40.5656 128.213 40.507 128.184 40.4774C128.243 40.4477 128.3 40.4079 128.363 40.3938C128.385 40.3891 128.421 40.4477 128.451 40.4774C128.391 40.507 128.335 40.5468 128.272 40.5606ZM31.5039 39.9165C31.1189 39.7262 30.8967 39.8112 30.5725 40.0341C30.1514 40.3236 29.6372 40.3757 29.1129 40.3518C28.4066 40.3203 27.6974 40.3619 26.9907 40.3373C26.5366 40.3218 26.0847 40.2425 25.632 40.1919C26.0369 39.9668 26.5171 39.9683 26.9459 39.8583C27.8866 39.6169 28.8947 39.6404 29.8738 39.5398C30.1622 39.5102 30.443 39.4096 30.731 39.3734C31.1142 39.3249 31.5032 39.2743 31.8856 39.2967C32.0152 39.3043 32.1321 39.5312 32.3141 39.7189C32.0195 39.7996 31.6877 40.0073 31.5039 39.9165ZM147.406 14.7628C147.485 14.7639 147.563 14.8692 147.641 14.9275C147.483 14.9691 147.325 15.01 147.017 15.0903C146.998 15.0425 146.961 14.9434 146.923 14.845C147.084 14.8142 147.245 14.7603 147.406 14.7628ZM159.966 29.0191C159.867 28.9504 159.732 28.8751 159.625 28.8889C158.615 29.0191 157.649 28.717 156.663 28.6135C156.539 28.6005 156.416 28.5672 156.292 28.5429C156.377 28.4178 156.435 28.2542 156.551 28.1735C156.881 27.9423 156.757 27.6127 156.749 27.3239C156.746 27.2183 156.552 27.02 156.463 27.0301C154.923 27.2027 153.431 26.6618 151.898 26.7435C150.998 26.7913 150.112 26.5887 149.325 26.1964C148.145 25.6074 146.859 25.4616 145.613 25.1768C144.936 25.0223 144.192 25.184 143.483 25.1392C142.805 25.0968 142.134 24.9221 141.456 24.8935C140.287 24.845 139.115 24.9467 137.956 24.6362C137.547 24.5269 137.413 24.5125 137.637 24.0743C137.724 23.906 137.531 23.5952 137.465 23.3495C137.333 23.4161 137.199 23.4787 137.07 23.5504C136.707 23.7515 136.339 23.9422 135.989 24.1629C135.461 24.4962 134.916 24.3652 134.368 24.2574C134.171 23.3669 133.757 23.9238 133.345 24.0718C132.272 24.4571 132.258 24.4405 131.17 24.0754C131.046 24.0334 130.911 23.901 130.866 23.7794C130.793 23.5815 130.891 23.4896 131.35 23.1885C131.774 22.9117 133.026 22.4641 133.461 22.4895C134.582 22.5549 135.722 22.2912 136.83 22.7315C137.137 22.8538 137.534 22.7503 137.89 22.7503C138.202 22.7503 138.514 22.7644 138.825 22.7464C139.16 22.7265 139.547 22.8846 139.788 22.4978C140.035 22.8477 140.404 22.7362 140.74 22.75C140.785 22.7514 140.852 22.7677 140.87 22.746C141.251 22.2731 141.784 22.5871 142.23 22.4753C142.68 22.3624 143.096 22.1363 143.591 22.2112C144.242 22.31 144.89 21.955 145.478 22.0053C146.231 22.0694 146.567 21.2549 147.265 21.413C147.291 21.4188 147.362 21.3562 147.358 21.337C147.344 21.2722 147.322 21.1782 147.275 21.1565C147.051 21.0544 146.813 20.8894 146.587 20.8985C145.628 20.9383 144.698 20.791 143.757 20.6354C143.001 20.5102 142.231 20.6546 141.454 20.3879C140.897 20.1972 140.218 20.3854 139.599 20.3409C139.009 20.2985 138.428 20.1422 137.838 20.0937C137.307 20.05 136.673 20.2634 136.26 20.0402C135.704 19.7402 135.316 20.135 134.855 20.0858C134.767 20.0764 134.652 20.1205 134.592 20.0789C133.915 19.6071 133.152 19.8651 132.429 19.8263C131.718 19.788 131.005 19.8213 130.292 19.8126C130.219 19.8119 130.146 19.7417 130.073 19.7037C130.128 19.653 130.178 19.5662 130.239 19.5571C130.6 19.5036 130.96 19.0173 131.289 19.3549C131.688 19.7659 131.887 19.3183 132.177 19.289C132.515 19.255 132.895 19.3943 133.132 19.0122C133.458 18.4868 133.968 18.4677 134.515 18.4778C135.31 18.4926 136.14 18.5871 136.889 18.3938C137.269 18.2961 137.641 18.294 138.009 18.2158C138.375 18.138 138.734 18.0226 139.102 17.96C139.262 17.9332 139.49 17.9387 139.597 18.0316C140.145 18.506 140.439 18.078 140.808 17.7635C141.093 17.5204 140.874 17.4274 140.738 17.2837C140.651 17.1929 140.571 17.0963 140.488 17.0019C140.605 16.9628 140.72 16.9016 140.841 16.8886C142.686 16.6896 144.495 17.2678 146.338 17.1524C146.382 17.1495 146.454 17.1343 146.467 17.1546C146.853 17.7472 147.514 17.2783 148.042 17.5652C148.525 17.8279 149.242 17.6803 149.855 17.6796C150.36 17.6789 150.849 17.9209 151.375 17.6966C151.807 17.512 152.182 17.9137 152.595 17.9419C153.322 17.9911 154.056 17.8768 154.761 18.2024C154.981 18.3041 155.422 18.3298 155.532 18.1984C155.959 17.6872 156.497 17.7277 157.064 17.6441C157.353 17.6018 157.75 17.1578 157.794 16.8517C157.862 16.3723 157.275 16.8007 157.09 16.5441C156.863 16.2304 156.527 16.3719 156.235 16.3574C155.835 16.3375 155.312 16.5108 155.06 16.318C154.592 15.9591 154.093 16.2449 153.685 16.064C153.187 15.8433 152.698 15.8158 152.183 15.8172C151.965 15.8179 151.652 15.8885 151.545 15.7745C151.201 15.4116 150.798 15.59 150.424 15.5599C150.097 15.5335 149.777 14.9568 149.437 15.535C149.05 15.0205 148.431 15.4843 147.991 15.1934C148.437 15.0469 148.88 14.8913 149.33 14.7585C149.453 14.7219 149.605 14.7845 149.728 14.7469C150.121 14.6268 150.518 14.5048 150.89 14.3326C151.015 14.274 151.114 14.0674 151.133 13.9169C151.141 13.8564 150.891 13.6838 150.779 13.7001C150.233 13.7794 149.784 13.5434 149.325 13.3249C149.213 13.2717 149.11 13.1747 148.994 13.1595C148.232 13.0589 147.466 12.9041 146.702 12.9066C145.917 12.9095 145.171 12.7246 144.407 12.6396C143.292 12.5158 142.166 12.691 141.039 12.3863C140.315 12.1905 139.485 12.4768 138.755 12.0871C137.266 12.2144 135.821 11.6471 134.325 11.8131C133.885 11.862 133.436 11.8251 132.991 11.8164C132.914 11.815 132.839 11.7574 132.763 11.7256C132.832 11.6311 132.886 11.5183 132.974 11.4481C133.067 11.3732 133.19 11.3051 133.306 11.2928C134.468 11.1687 135.67 11.5555 136.8 11.0211C137.083 11.4296 137.536 11.0399 137.723 11.1448C138.127 11.3721 138.528 11.1459 138.867 11.299C139.966 11.7951 141.114 11.4531 142.234 11.5443C142.549 11.5696 143.183 10.9824 143.13 10.7407C143.062 10.4331 142.841 10.2855 142.5 10.1881C142.278 10.1245 142.083 9.93486 141.8 9.94825C141.46 9.96489 141.161 9.85851 140.828 9.72355C140.07 9.41635 139.178 9.47642 138.487 8.92172C138.404 8.85514 138.233 8.89314 138.103 8.88879C137.419 8.86708 136.755 8.83995 136.067 8.66265C135.297 8.46364 134.462 8.60765 133.641 8.39525C132.872 8.19624 132.035 8.3265 131.215 8.12677C130.441 7.93753 129.608 8.05838 128.789 7.85865C128.014 7.67013 127.183 7.76602 126.363 7.59668C125.407 7.39876 124.399 7.47113 123.405 7.33688C121.905 7.1339 120.366 7.3329 118.844 7.04742C117.658 6.82561 116.436 7.1111 115.208 6.8039C114.245 6.56292 113.166 6.68232 112.151 6.77604C111.13 6.87084 110.184 6.44243 109.189 6.49924C108.688 6.52854 108.196 6.68196 107.696 6.75216C106.912 6.8618 106.164 6.62986 105.401 6.50358C104.925 6.4247 104.425 6.49598 103.935 6.48693C103.497 6.47897 102.909 6.62515 102.653 6.40082C102.103 5.91885 101.777 6.51914 101.352 6.48621C101.229 6.4768 101.084 6.46595 100.991 6.39828C100.509 6.04911 99.8943 6.11026 99.4819 6.27707C98.9898 6.47644 98.6254 6.57233 98.1894 6.27779C97.8514 6.58246 97.5804 6.38851 97.2193 6.25536C96.8278 6.11063 96.3415 6.22243 95.8964 6.22243C95.0063 6.22243 94.1151 6.2427 93.2261 6.21339C92.8107 6.19964 92.4072 6.29154 91.9698 6.00642C91.7028 5.83274 91.1245 5.77882 90.7349 6.13016C90.6534 6.20326 90.4874 6.23835 90.3777 6.21375C90.0973 6.15115 89.8252 5.97023 89.5524 5.9753C89.2314 5.98145 88.9181 6.16092 88.5928 6.21375C88.3326 6.25644 87.9802 6.33026 87.8076 6.20253C87.2406 5.78353 86.6201 5.95178 86.0353 5.97675C85.447 6.00207 84.8018 5.69524 84.2576 6.19095C84.2001 6.24306 83.9718 6.21194 83.9139 6.14283C83.665 5.8454 83.3328 5.93152 83.0524 5.96842C82.2903 6.06757 81.4715 5.6558 80.762 6.21266C80.2872 5.69524 79.6323 5.88774 79.1431 6.00171C78.592 6.13016 78.1238 5.93477 77.618 5.9402C74.5471 5.97168 71.4755 5.95467 68.4046 5.95829C68.1451 5.95865 67.847 5.91704 67.6339 6.02632C66.9203 6.39105 66.1438 6.34654 65.4947 6.09615C65.1209 5.9525 65.0934 6.34075 64.8618 6.22677C64.6415 6.11822 64.4001 5.96517 64.1744 5.97494C63.852 5.98905 63.5382 6.19421 63.2151 6.2123C61.7826 6.29118 60.3566 6.2076 58.9129 6.44532C57.3335 6.70584 55.7031 6.42108 54.0831 6.71742C52.6398 6.9812 51.1418 6.68269 49.6525 6.9812C48.259 7.2609 46.7969 7.20011 45.3647 7.28804C45.2761 7.29346 45.1581 7.25185 45.102 7.29455C44.56 7.71138 43.9253 7.58655 43.341 7.53517C42.711 7.47945 42.1708 7.77688 41.5796 7.81378C41.0035 7.85033 40.4145 7.88253 39.8467 7.80329C39.3738 7.73707 38.9783 8.08588 38.4472 7.85937C37.9612 7.65204 37.4271 8.25016 36.8355 8.09855C36.6872 8.06092 36.4958 8.12134 36.3427 8.18285C35.2366 8.62755 34.048 8.67821 32.8937 8.86781C31.8976 9.03172 30.9156 9.23435 29.9469 9.50391C29.5533 9.61355 29.1932 9.85164 28.7977 9.94644C26.0912 10.5963 24.8114 10.9067 22.6082 12.0885C22.4616 12.1674 22.3339 12.3212 22.1827 12.3447C21.2694 12.4854 20.4137 12.8447 19.4704 12.9211C18.5723 12.9935 17.722 13.4457 16.8047 13.5521C16.6868 13.5659 16.5746 13.6379 16.4617 13.6871C16.1816 13.8087 16.1813 14.0084 16.3752 14.1839C16.5243 14.3181 16.7287 14.4629 16.9147 14.4719C17.4227 14.4962 17.9065 14.4317 18.4196 14.262C18.9812 14.0764 19.6625 14.1488 20.2722 14.2393C20.9126 14.3344 21.429 13.9632 22.0332 13.94C23.1108 13.8984 24.1854 13.7757 25.2615 13.686C25.3458 13.6788 25.4388 13.6831 25.5126 13.6491C26.2537 13.3097 27.0244 13.1096 27.8443 13.1556C28.6693 13.2019 29.4259 12.7677 30.2729 12.8672C30.8551 12.9356 31.4561 12.9678 32.0423 12.6436C32.4266 12.4312 32.9313 12.4047 33.3883 12.3613C34.5513 12.2499 35.7175 12.1757 36.8826 12.0881C36.9709 12.0813 37.095 12.125 37.1438 12.0809C37.5494 11.7147 38.0495 11.7784 38.5054 11.8367C39.0525 11.9069 39.4943 11.5895 39.9994 11.5577C40.857 11.5041 41.7399 11.7006 42.5591 11.2874C44.0929 11.414 45.5797 10.8612 47.1236 11.0041C48.0948 11.0938 49.0898 11.1007 50.0563 10.9896C50.5918 10.9277 51.1827 10.5482 51.6545 10.8138C51.8206 10.9071 51.978 10.9534 52.1321 10.9777C51.5336 11.1011 50.9279 11.177 50.3313 11.2979C49.3706 11.4926 48.4237 11.7321 47.4898 12.0498C47.1102 12.179 46.7639 12.4579 46.3822 12.5701C44.9591 12.9884 43.9456 13.2887 42.9737 13.699C42.6908 13.7341 42.4056 13.7435 42.114 13.6875C41.7438 13.6162 41.382 13.7323 40.9822 13.5C40.7144 13.3444 40.2042 13.6299 39.7975 13.6824C38.9906 13.7855 38.179 13.8517 37.3729 13.9621C37.1789 13.9892 36.9886 14.113 36.8175 14.2241C36.7672 14.2566 36.7194 14.2932 36.6713 14.3304C36.2204 14.1853 35.7298 14.8081 35.1859 14.642C35.043 14.5982 34.8581 14.6695 34.7112 14.7418C33.6449 15.2647 32.4979 15.3276 31.3849 15.5531C30.4238 15.7477 29.4769 15.9873 28.543 16.305C28.1634 16.4341 27.8172 16.7131 27.4358 16.8256C24.8262 17.5927 23.5924 17.9589 21.4709 19.3451C21.3997 19.3914 21.3334 19.4602 21.2665 19.5206C20.9144 19.551 20.5591 19.5618 20.2002 19.5546C19.3994 19.5383 18.5973 19.5336 17.7969 19.5561C16.9802 19.5788 16.2323 19.8575 15.5998 20.3629C15.1312 20.7374 14.8059 21.3457 14.0541 21.1507C13.7222 21.578 13.1267 21.5704 12.7616 21.8794C11.9181 22.594 10.9998 23.1346 9.98739 23.5775C9.17145 23.9343 8.43403 24.4553 7.83121 25.1522C7.3554 25.7022 6.85968 26.28 6.11503 26.4675C5.77129 26.5539 5.88164 26.7624 5.84438 26.9549C5.80674 27.1506 5.74921 27.3424 5.70037 27.5356C5.52958 27.2125 5.18439 27.5171 5.15617 27.4849C4.83558 27.1076 4.74295 27.5233 4.56746 27.6257C4.6818 27.6887 4.82002 27.7299 4.9036 27.8215C4.98104 27.9061 5.05775 28.0585 5.03242 28.1547C4.99225 28.3085 4.80157 28.4369 4.79469 28.5817C4.78637 28.7673 4.89709 28.9591 4.95607 29.1479C5.13518 29.0434 5.37761 28.979 5.47784 28.8241C5.60593 28.6255 5.59905 28.345 5.6906 28.116C5.73619 28.002 5.87115 27.9239 5.96559 27.8301C6.0148 27.9329 6.08355 28.031 6.11105 28.1395C6.33756 29.0336 7.12853 29.4095 7.83628 29.5981C8.42462 29.7551 9.06217 29.9357 9.7019 29.9461C10.1025 29.953 10.5052 29.9697 10.9025 29.9328C11.0067 29.923 11.1246 29.7442 11.1829 29.6183C11.3023 29.3592 11.3207 29.4088 11.4677 29.6227C11.7781 30.0742 11.954 30.071 12.2575 29.7091C12.4171 29.5192 12.4674 29.5054 12.5152 29.6784C12.665 30.219 13.1256 30.1886 13.5265 30.2841C13.6246 30.3069 13.7874 30.4082 13.8 30.3901C14.1536 29.8781 15.0064 30.0008 15.2032 29.2851C15.2336 29.1736 15.3744 29.0828 15.4793 29.0021C15.8375 28.7264 16.1209 28.8465 16.2652 29.3245C16.3007 29.4421 16.3655 29.661 16.3864 29.6574C17.0439 29.5452 17.2776 30.1216 17.6851 30.4173C17.8707 30.5522 18.1175 30.5537 18.1316 30.2132C18.1471 29.8466 18.4207 29.9693 18.6139 29.9494C18.9424 29.9158 18.9377 30.1365 18.9414 30.3709C18.9432 30.4893 18.9996 30.6112 19.0499 30.7234C19.0839 30.799 19.1653 30.8525 19.2001 30.9278C19.4794 31.5324 19.39 31.6924 18.7659 31.8168C17.9937 31.9713 17.1268 31.9811 16.537 32.5253C16.1165 32.9125 15.6067 32.9798 15.1656 33.097C14.6713 33.2291 14.2368 33.4563 13.7689 33.6036C12.923 33.8699 12.2565 34.4398 11.4517 34.7821C10.126 35.3451 8.89573 36.1328 7.6322 36.8384C7.48276 36.9223 7.38362 37.0917 7.24902 37.2075C7.15494 37.2878 7.0283 37.4151 6.93639 37.3999C6.44285 37.3185 6.27098 37.7491 5.95546 37.9543C5.64826 38.1544 5.22057 38.2061 4.97163 38.4507C4.56927 38.8462 4.17595 39.0456 3.59195 39.0315C2.97539 39.0163 2.48003 39.5616 2.37438 40.185C2.31467 40.5371 2.48184 40.6876 2.81184 40.5729C3.27824 40.4108 3.73379 40.206 4.21105 40.0877C4.74186 39.9552 5.28968 39.8492 5.83424 39.8253C6.35275 39.8025 6.7714 39.3774 7.32898 39.5312C7.51424 39.5818 7.77585 39.5333 7.94591 39.4345C9.06471 38.7822 10.359 39.1187 11.5418 38.7731C12.3516 38.5361 13.2414 38.577 14.0924 38.4684C14.2429 38.4493 14.3692 38.2832 14.5223 38.2246C14.7289 38.1453 15.1171 38.018 15.1396 38.0607C15.403 38.5658 14.8258 38.4008 14.6692 38.5907C14.599 38.6751 14.4481 38.7424 14.3374 38.7369C13.6857 38.7051 13.2624 39.1328 12.7406 39.4114C11.9757 39.8199 11.3616 40.4466 10.4809 40.7267C9.91864 40.905 9.23441 40.5884 8.79007 41.1439C7.31885 41.0965 6.10598 42.0358 4.69338 42.2156C4.6344 42.2232 4.58628 42.3133 4.53272 42.365C4.59604 42.4276 4.64887 42.5094 4.72377 42.5492C4.86814 42.6263 5.02771 42.7395 5.17679 42.733C5.85776 42.7034 6.52824 42.8152 7.21754 42.5091C7.77694 42.2605 8.6059 42.4931 9.06145 42.1635C9.71203 41.6931 10.3442 42.3408 10.8996 41.9435C12.0524 41.9949 13.1647 41.51 14.3989 41.5542C14.4492 41.5137 14.4973 41.476 14.472 41.5545C14.5809 41.463 14.6373 41.5064 14.6323 41.5165C14.6008 41.5744 14.5545 41.6244 14.5136 41.6768C14.494 41.6577 14.4749 41.6385 14.4557 41.6189C14.3005 42.2105 13.821 41.9189 13.5576 42.055C12.7605 42.4671 11.8917 42.792 11.0143 42.9816C10.3315 43.1292 9.79706 43.4907 9.20293 43.7795C8.60626 44.0693 7.94085 44.1598 7.44405 44.7141C6.85245 45.3737 5.99381 45.8336 5.15761 45.8933C4.0352 45.9736 2.94354 46.3991 1.79978 46.2124C1.67495 46.1925 1.5161 46.1864 1.41732 46.2465C1.27187 46.3344 1.06453 46.4936 1.0709 46.6123C1.07828 46.7443 1.28127 46.9495 1.4242 46.9737C1.76939 47.0316 2.13991 46.9477 2.4804 47.0175C4.16438 47.3642 4.28016 47.3605 6.00141 47.0197C6.38713 46.9433 6.81337 46.947 7.19691 47.0277C7.50628 47.0935 7.81095 47.2951 8.05555 47.5071C8.18798 47.6222 8.23212 47.8841 8.24189 48.0835C8.25926 48.446 7.94338 48.2811 7.76753 48.3509C7.6427 48.4001 7.55441 48.5398 7.44948 48.6389C7.53053 48.7174 7.60796 48.8604 7.69299 48.8647C9.08135 48.9389 10.4502 49.2967 11.8548 49.1458C12.1627 49.1129 12.4775 49.1448 12.7891 49.14C13.694 49.127 14.5932 49.1773 15.4902 48.9009C15.9016 48.7739 16.2417 48.5539 16.6234 48.4088C16.8843 48.3093 17.3178 48.2659 17.4893 48.4124C17.8229 48.6979 18.1576 48.5546 18.488 48.6089C19.6752 48.8043 20.811 48.3266 21.9822 48.352C22.1961 48.3567 22.5156 48.1577 22.6107 48.5188C22.6219 48.5622 22.2786 48.7236 22.0853 48.7902C21.4623 49.0062 20.8417 49.3333 20.2031 49.3789C19.0843 49.4588 18.1276 49.9639 17.1018 50.2925C16.3948 50.519 15.7862 50.9981 14.9952 51.0281C14.6927 51.0397 14.388 51.2698 14.1043 51.4352C12.9269 52.1223 11.8465 52.9267 10.4516 53.2718C9.34911 53.5447 8.23357 53.6952 7.13251 53.9405C6.97077 53.9763 6.81192 54.0255 6.65199 54.069C6.77538 54.1945 6.88465 54.3396 7.02577 54.4409C7.19221 54.5603 7.37639 54.6906 7.56997 54.7282C7.9394 54.801 8.30449 54.6895 8.6884 54.9652C8.8856 55.1067 9.38312 54.772 9.75075 54.7503C10.6532 54.6967 11.5751 54.8588 12.4432 54.4724C14.2867 54.6099 16.093 54.0082 17.9409 54.1992C18.2405 54.2303 18.6682 54.2908 18.8288 54.1301C19.1813 53.7784 19.66 54.1388 19.923 53.858C20.1759 53.5892 20.4354 53.9771 20.7364 53.7118C20.9618 53.5135 21.5031 53.6731 21.9037 53.6731C22.4823 53.6731 23.1394 53.849 23.6228 53.6351C24.5462 53.2259 25.4935 53.5117 26.4194 53.3102C27.3453 53.1079 28.3324 53.1796 29.2927 53.1423C29.6926 53.1268 30.1763 53.2805 30.4745 53.1058C30.8971 52.859 31.2987 52.9187 31.7181 52.8659C32.1747 52.8087 32.6216 52.639 33.0775 52.6169C34.5549 52.5449 36.0341 52.6987 37.5115 52.3644C38.5126 52.1375 39.5996 52.5663 40.6059 52.0861C40.7227 52.03 40.9236 52.1516 41.0864 52.1867C41.3317 52.2399 41.5908 52.3644 41.8216 52.326C42.533 52.2073 43.2907 52.1921 43.9467 51.9761C44.7456 51.7134 45.5076 51.9121 46.2758 51.8068C46.6026 52.267 46.9127 51.7084 47.2607 51.7869C47.6407 51.8726 48.165 51.9602 48.436 51.7731C49.2979 51.1765 50.3414 51.9309 51.1588 51.31C51.6049 51.7532 52.1654 51.4489 52.6655 51.5401C52.9828 50.985 53.6305 51.4449 54.0886 51.0625C54.3563 50.8385 55.0735 50.929 55.4628 51.1254C55.956 51.3751 56.5006 51.3791 56.8537 51.2286C57.4594 50.9702 58.0391 51.0599 58.631 50.9995C58.8735 50.9746 59.1076 50.8667 59.346 50.7976C59.4484 50.7676 62.1919 50.722 62.3152 50.7108C63.2991 50.6203 64.2731 50.9177 65.2863 50.527C66.011 50.2476 66.9189 50.6131 67.6943 50.2122C67.763 50.1767 67.8929 50.1763 67.9523 50.2187C68.6434 50.7072 69.3233 50.4919 70.0075 50.2078C71.0536 49.774 72.1546 49.9701 73.2343 49.9491C73.5842 49.9426 75.0106 49.9241 75.2476 49.8565C75.8935 49.6719 76.4561 49.1252 77.2402 49.6448C77.6118 49.8909 78.1347 49.486 78.5823 49.4389C79.0646 49.3886 79.6471 49.7823 80.0538 49.6303C80.7453 49.3716 81.414 49.4382 82.096 49.4114C82.5849 49.3919 83.0839 49.351 83.5622 49.4234C84.0337 49.4954 84.4404 49.1885 84.9614 49.36C85.3131 49.4758 85.8125 49.1353 86.2492 49.0116C86.3349 48.987 86.437 49.0156 86.5311 49.025C86.9157 49.0623 87.2992 49.1162 87.6846 49.1368C88.0396 49.156 88.5287 49.2873 88.7252 49.1107C89.1417 48.7359 89.4366 49.3575 89.7253 49.1314C90.1092 48.831 90.5413 48.8205 90.9549 48.8889C91.558 48.9877 92.1355 48.9428 92.7409 48.9038C94.1589 48.8122 95.5885 48.8376 97.0109 48.8846C98.4557 48.9327 99.8517 48.4555 101.308 48.5901C102.323 48.6834 103.356 48.5727 104.377 48.6237C104.835 48.6469 105.313 48.2043 105.577 48.3798C106.178 48.7793 106.777 48.581 107.361 48.5922C109.497 48.632 111.633 48.6074 113.77 48.6082C114.08 48.6082 114.453 48.5058 114.685 48.6411C114.979 48.8126 115.099 48.8712 115.459 48.7037C115.853 48.5206 116.465 48.5043 116.849 48.6896C117.202 48.86 117.513 48.8759 117.843 48.8643C118.436 48.8448 119.068 49.0413 119.602 48.6078C120.452 48.7326 121.338 48.3693 122.177 48.8462C122.412 48.9798 122.827 48.7804 123.087 48.8965C123.44 49.055 123.609 48.4547 123.995 48.7771C124.118 48.8802 124.5 48.6588 124.768 48.6114C125.103 48.5521 125.444 48.5249 125.779 48.4699C125.855 48.4569 125.923 48.3458 125.992 48.3484C126.321 48.3599 126.309 48.1533 126.32 47.9189C126.332 47.6373 126.172 47.6269 125.959 47.5165C125.509 47.2838 125.026 47.0968 124.561 47.041C124.009 46.9752 123.477 46.8865 122.935 46.7639C122.47 46.6582 121.96 46.7603 121.472 46.7367C120.966 46.7121 120.467 46.8265 119.961 46.5055C119.649 46.3083 119.182 46.6369 118.724 46.507C118.229 46.3669 117.664 46.4751 117.13 46.4751C116.863 46.4751 116.496 46.5869 116.348 46.4545C115.871 46.029 115.335 46.2964 114.837 46.2085C114.34 46.1205 113.846 45.9975 113.345 45.9519C112.86 45.9074 112.367 45.9432 111.877 45.9418C111.389 45.9403 110.901 45.9364 110.412 45.9335C109.991 45.2597 109.583 46.1911 109.158 45.9476C109.091 45.9089 108.978 45.9595 108.896 45.9371C108.819 45.9161 108.697 45.8524 108.696 45.8065C108.694 45.6867 108.716 45.5394 108.788 45.4529C108.894 45.3267 109.047 45.166 109.189 45.1555C109.872 45.1059 110.576 45.2463 111.214 44.8758C111.827 45.2543 112.551 45.0365 113.197 45.2445C113.287 45.2735 113.455 45.3111 113.469 45.2832C113.804 44.645 114.244 45.0994 114.667 45.1255C115.554 45.1809 116.447 45.157 117.336 45.1306C117.525 45.1248 117.772 45.0155 117.883 44.8704C118.127 44.5505 118.275 44.6721 118.464 44.9015C118.642 45.1172 118.854 45.2984 119.104 45.0025C119.623 44.3884 120.278 44.6026 120.914 44.6848C121.045 45.1884 121.366 44.3407 121.616 44.7883C121.707 44.9518 122.269 44.8697 122.616 44.8686C122.777 44.8682 123.078 44.7937 123.078 44.7521C123.079 44.1677 123.782 44.3436 123.943 43.9246C124.06 43.6192 124.345 43.3702 124.428 43.0616C124.559 42.5782 124.844 42.4736 125.29 42.4674C125.795 42.4595 126.278 42.4931 126.803 42.259C127.214 42.0752 127.981 41.9634 128.178 42.7783C128.26 43.1209 128.515 43.0258 128.695 42.9979C128.976 42.9541 129.249 42.8419 129.519 42.7381C129.619 42.699 129.755 42.6158 129.777 42.529C129.887 42.0821 129.983 41.6294 130.037 41.1739C130.048 41.0878 129.858 40.9282 129.736 40.8949C129.659 40.8736 129.544 41.0534 129.43 41.0921C129.199 41.1699 128.713 40.9184 128.735 40.7097C128.755 40.5215 128.883 40.2881 129.038 40.1861C129.197 40.0808 129.56 40.0102 129.636 40.0967C130.007 40.5201 130.467 40.3153 130.881 40.3348C131.592 40.3684 132.362 40.1759 133 40.3923C133.611 40.5997 134.184 40.6026 134.776 40.5978C135.325 40.5935 135.857 40.8511 136.428 40.6232C136.989 40.3996 137.506 40.9 138.048 40.8624C139.479 40.7639 140.941 41.1768 142.346 40.6167C142.461 40.5711 142.681 40.5566 142.732 40.6217C143.082 41.0661 143.564 40.8917 143.968 40.8598C144.905 40.7864 145.872 41.1341 146.797 40.6753C146.868 40.6402 147.222 41.0624 147.389 40.7162C147.472 40.5443 147.625 40.101 147.059 40.0428C146.889 40.0254 146.757 39.5956 146.617 39.3495C146.557 39.2442 146.522 39.026 146.476 39.0257C145.675 39.0239 145.068 38.5491 144.402 38.2162C144.331 38.1808 144.204 38.1764 144.141 38.217C143.63 38.5477 143.129 38.1486 142.623 38.2083C142.231 38.255 141.885 38.1428 141.526 37.9568C140.811 37.5852 140.052 37.3033 139.217 37.4137C138.244 37.5422 137.361 37.2994 136.528 36.8123C136.387 36.7298 136.103 36.6079 136.095 36.622C135.792 37.1611 135.18 36.686 134.775 37.0453C134.536 37.257 134.108 37.1398 133.701 36.9683C132.682 36.5384 132.581 35.6852 132.467 34.8114C132.422 34.4582 132.578 34.4105 132.962 34.5787C133.291 34.7227 133.761 35.0473 133.942 34.9333C134.46 34.6088 134.972 34.7861 135.476 34.7578C136.165 34.7195 136.161 34.7557 136.201 35.4355C136.214 35.644 136.271 35.8495 136.308 36.0565C136.36 35.8708 136.363 35.645 136.474 35.5079C136.706 35.2239 137.13 34.8809 137.385 35.056C137.856 35.3795 138.158 34.9753 138.503 34.9283C139.008 34.8595 138.97 34.7607 139.365 35.0947C139.689 35.3675 139.925 34.9858 140.186 34.8772C140.284 34.8374 140.318 34.6457 140.381 34.523C140.411 34.6439 140.427 34.7705 140.475 34.8841C140.532 35.0216 140.616 35.1479 140.689 35.2792C140.794 35.1805 140.908 35.0893 141.002 34.9814C141.085 34.8877 141.136 34.7676 141.216 34.6717C141.501 34.3283 141.448 34.616 141.555 34.8121C141.762 35.1938 142.177 35.0086 142.484 34.9731C142.631 34.9561 142.802 34.6768 142.853 34.4872C142.883 34.3797 142.723 34.1695 142.596 34.0808C142.108 33.7407 141.489 33.571 141.205 32.9646C141.176 32.9009 140.905 32.8582 140.867 32.9045C140.537 33.3101 140.31 33.1238 140.01 32.8466C139.846 32.695 139.552 32.6378 139.312 32.6234C138.78 32.5915 138.24 32.6581 137.712 32.6013C137.131 32.5387 136.434 32.5452 136.019 32.2235C135.577 31.8823 135.135 31.9424 134.717 31.7814C134.166 31.5686 133.622 31.6233 133.082 31.5303C132.476 31.4257 131.886 31.2093 131.3 31.007C130.978 30.8952 131.243 30.7451 131.342 30.6745C131.472 30.5815 131.65 30.4741 131.791 30.4932C132.285 30.5591 132.701 30.3065 133.154 30.2324C133.654 30.1502 134.15 30.1097 134.654 29.9972C135.157 29.8843 135.875 29.3245 136.332 30.1951C136.362 30.2523 136.621 30.2653 136.707 30.2049C137.094 29.9342 137.426 30.0308 137.837 30.1915C138.204 30.3355 138.603 30.1983 138.87 29.8217C139.08 29.525 139.353 29.2995 139.766 29.4146C139.984 29.4754 140.304 29.6567 140.402 29.5745C140.69 29.3346 140.992 29.4685 141.279 29.4099C141.48 29.369 141.752 29.3441 141.852 29.2091C142.109 28.8606 142.439 28.8556 142.794 28.8838C143.249 28.9196 143.66 28.8954 143.971 28.4767C144.046 28.374 144.281 28.3533 144.442 28.3544C144.999 28.3591 145.456 28.1239 145.771 27.7057C146.164 27.1835 146.691 27.2642 147.204 27.2917C147.546 27.3102 147.376 27.6253 147.416 27.8153C147.696 27.8667 147.831 27.2429 148.197 27.6557C148.403 27.8888 148.67 28.0599 148.31 28.4033C147.924 28.7698 148.671 28.9497 148.514 29.3082C148.508 29.3231 148.572 29.369 148.604 29.4001C148.653 29.3412 148.733 29.2876 148.745 29.2221C148.767 29.0929 148.735 28.9544 148.754 28.8241C148.864 28.074 149.312 27.8493 149.884 28.2991C150.183 28.5328 150.339 28.7459 150.751 28.4055C150.964 28.2292 151.437 28.3197 151.779 28.3747C151.865 28.3888 151.944 28.7307 151.936 28.9182C151.932 28.9999 151.596 29.1476 151.588 29.1371C151.103 28.4702 150.777 29.2536 150.375 29.2883C150.265 29.2977 150.182 29.627 150.087 29.8097C150.245 29.8557 150.411 29.8839 150.56 29.9512C150.885 30.0978 151.158 29.5883 151.445 29.8513C152.02 30.3796 152.602 30.0138 153.18 29.9179C153.376 29.885 153.555 29.7019 153.748 29.6925C154.272 29.6675 154.83 29.7732 154.936 29.0032C154.945 28.9366 155.367 28.827 155.52 28.8997C155.904 29.0828 155.351 29.1816 155.435 29.3451C155.499 29.4707 155.613 29.665 155.708 29.6668C156.998 29.6878 158.289 29.6838 159.58 29.6766C159.7 29.6759 159.833 29.6357 159.935 29.5731C160.045 29.5054 160.184 29.4005 160.204 29.2934C160.216 29.2163 160.066 29.0897 159.966 29.0191Z" fill="#FFECED"/>
</g>
<mask id="mask1" mask-type="alpha" maskUnits="userSpaceOnUse" x="158" y="27" width="3" height="2">
<path d="M158.399 27.2762H160.488V28.1062H158.399V27.2762Z" fill="white"/>
</mask>
<g mask="url(#mask1)">
<path fill-rule="evenodd" clip-rule="evenodd" d="M159.624 27.2841C159.587 27.2671 159.536 27.2852 159.492 27.2812C158.947 27.2374 158.309 27.4929 158.41 27.7078C158.616 28.1496 159.049 28.0942 159.344 28.0816C159.491 28.0816 159.537 28.0736 159.58 28.083C159.975 28.1691 160.264 28.0092 160.488 27.6977C160.201 27.5591 159.914 27.4187 159.624 27.2841Z" fill="#FFECED"/>
</g>
<path fill-rule="evenodd" clip-rule="evenodd" d="M146.881 28.348C146.489 28.7689 147.005 29.1662 146.913 29.579C146.976 29.5844 147.053 29.6159 147.099 29.5906C147.463 29.3905 147.556 28.9903 147.425 28.4783C147.371 28.2703 147.416 28.0372 147.416 27.8151C147.327 27.9254 147.245 28.0434 147.146 28.1443C147.069 28.2229 146.97 28.2807 146.881 28.348Z" fill="#FFECED"/>
<path fill-rule="evenodd" clip-rule="evenodd" d="M144.302 36.3039C144.363 36.2706 144.454 36.2525 144.481 36.2015C144.61 35.9561 144.723 35.7014 144.815 35.5053C144.734 35.281 144.694 35.1673 144.653 35.0544C144.593 35.1746 144.564 35.3349 144.469 35.4072C144.231 35.5874 144.173 35.8132 144.213 36.0824C144.225 36.1591 144.272 36.23 144.302 36.3039Z" fill="#FFECED"/>
<path fill-rule="evenodd" clip-rule="evenodd" d="M143.142 34.2744C143.23 34.3424 143.335 34.4803 143.402 34.464C143.525 34.4343 143.626 34.3131 143.816 34.1709C143.604 34.053 143.468 33.9317 143.421 33.9596C143.305 34.0269 143.232 34.1651 143.142 34.2744Z" fill="#FFECED"/>
<path fill-rule="evenodd" clip-rule="evenodd" d="M1.85131 40.5972C1.89943 40.6254 2.03585 40.5038 2.24716 40.3862C2.059 40.2444 1.95733 40.1235 1.83322 40.0924C1.76628 40.0761 1.66099 40.214 1.57306 40.2824C1.66316 40.392 1.73661 40.5295 1.85131 40.5972Z" fill="#FFECED"/>
<path fill-rule="evenodd" clip-rule="evenodd" d="M148.017 40.6252C147.892 40.6722 147.775 40.7783 147.696 40.8893C147.677 40.9154 147.82 41.1285 147.888 41.1282C148.014 41.1271 148.139 41.0319 148.359 40.9342C148.173 40.7602 148.063 40.6082 148.017 40.6252Z" fill="#FFECED"/>
<path fill-rule="evenodd" clip-rule="evenodd" d="M124.535 43.5945C124.506 43.6234 124.526 43.7135 124.544 43.7685C124.551 43.7913 124.613 43.7964 124.729 43.8369C124.818 43.7714 124.957 43.6922 125.063 43.5807C125.121 43.52 125.124 43.4056 125.151 43.3155C125.071 43.3021 124.969 43.2522 124.916 43.2837C124.776 43.3665 124.651 43.4791 124.535 43.5945Z" fill="#FFECED"/>
<path fill-rule="evenodd" clip-rule="evenodd" d="M144.206 34.2211C144.086 34.2815 143.989 34.385 143.89 34.4653C143.988 34.6122 144.032 34.6792 144.077 34.7458C144.193 34.5949 144.309 34.444 144.425 34.2935C144.35 34.2667 144.254 34.1969 144.206 34.2211Z" fill="#FFECED"/>
<path fill-rule="evenodd" clip-rule="evenodd" d="M130.537 42.2232C130.434 42.3126 130.383 42.4652 130.329 42.5991C130.323 42.6125 130.432 42.6726 130.487 42.7106C130.613 42.5847 130.734 42.4642 130.855 42.3433C130.745 42.2988 130.577 42.1877 130.537 42.2232Z" fill="#FFECED"/>
<path fill-rule="evenodd" clip-rule="evenodd" d="M146.347 28.0818C146.37 28.4809 146.679 28.3083 146.881 28.3481C146.859 27.9497 146.55 28.1219 146.347 28.0818Z" fill="#FFECED"/>
<path fill-rule="evenodd" clip-rule="evenodd" d="M142.35 29.6158C142.362 29.7295 142.43 29.8373 142.474 29.9477C142.519 29.88 142.563 29.813 142.629 29.7139C142.583 29.6242 142.529 29.5192 142.474 29.4143C142.43 29.482 142.343 29.554 142.35 29.6158Z" fill="#FFECED"/>
<path fill-rule="evenodd" clip-rule="evenodd" d="M148.493 40.6176C148.477 40.6784 148.545 40.7616 148.575 40.835C148.67 40.7945 148.765 40.754 148.806 40.7362C148.721 40.5329 148.69 40.4594 148.66 40.3864C148.601 40.4627 148.516 40.5318 148.493 40.6176Z" fill="#FFECED"/>
<path fill-rule="evenodd" clip-rule="evenodd" d="M144.21 42.0769C144.321 42.121 144.429 42.1887 144.543 42.201C144.605 42.2075 144.677 42.121 144.745 42.0769C144.639 42.0226 144.534 41.9683 144.445 41.922C144.345 41.9879 144.278 42.0324 144.21 42.0769Z" fill="#FFECED"/>
<path fill-rule="evenodd" clip-rule="evenodd" d="M146.105 27.9237C146.146 27.9765 146.187 28.029 146.228 28.0818H146.347C146.323 28.0127 146.309 27.9352 146.267 27.8795C146.254 27.8629 146.161 27.9074 146.105 27.9237Z" fill="#FFECED"/>
<path fill-rule="evenodd" clip-rule="evenodd" d="M142.925 29.2358C142.939 29.2984 142.979 29.3552 143.008 29.4145C143.038 29.3848 143.068 29.3552 143.103 29.3197C143.073 29.264 143.04 29.2061 143.008 29.1482C142.979 29.1779 142.92 29.2137 142.925 29.2358Z" fill="#FFECED"/>
<mask id="mask2" mask-type="alpha" maskUnits="userSpaceOnUse" x="1" y="40" width="1" height="1">
<path d="M1.07094 40.0299H1.34761V40.3917H1.07094V40.0299Z" fill="white"/>
</mask>
<g mask="url(#mask2)">
<path fill-rule="evenodd" clip-rule="evenodd" d="M1.25591 40.2565C1.2418 40.1935 1.202 40.1367 1.17233 40.0778C1.14266 40.1071 1.11299 40.1367 1.07716 40.1726C1.10828 40.2283 1.14048 40.2862 1.17233 40.3441C1.202 40.3144 1.26098 40.2786 1.25591 40.2565Z" fill="#FFECED"/>
</g>
<mask id="mask3" mask-type="alpha" maskUnits="userSpaceOnUse" x="24" y="0" width="102" height="46">
<path d="M24.9676 0H125.861V45.0146H24.9676V0Z" fill="white"/>
</mask>
<g mask="url(#mask3)">
<path fill-rule="evenodd" clip-rule="evenodd" d="M100.603 30.3531L100.437 30.6415L100.168 30.4482C99.7647 30.1588 99.8263 29.6652 99.8494 29.4792C99.9862 28.1549 100.487 27.0741 101.041 26.9138C101.234 26.8581 101.42 26.9178 101.538 27.0712C101.884 27.5181 101.543 28.7143 100.603 30.3531ZM55.8633 24.4233C56.5736 22.6431 57.328 20.9208 58.1052 19.3026C59.4473 16.4224 61.2789 12.6716 63.5429 9.21721C64.5372 7.72826 65.846 5.91003 67.1583 5.05285C67.2455 4.99459 67.4977 4.85167 67.7112 4.79052L67.9395 4.72466L68.0065 4.95407C68.1588 5.47873 68.1085 6.66844 68.0922 6.88084C67.746 10.5904 65.7606 14.7015 64.0176 17.3129C61.9056 20.4826 59.2027 23.0455 56.2009 24.7244L55.6111 25.0544L55.8633 24.4233ZM76.9149 30.9458C77.0469 30.2492 79.688 28.0312 80.3939 27.7974C80.5647 27.7381 80.7272 27.7779 80.8256 27.9027C80.9844 28.1025 80.8766 28.3561 80.666 28.6752C80.2803 29.26 78.5457 31.3246 77.3672 31.3246C77.2875 31.3246 77.2116 31.3152 77.141 31.2975L76.862 31.2258L76.9149 30.9458ZM125.85 32.1659C125.789 31.7986 125.478 31.4787 125.018 31.3101C124.368 31.071 123.618 31.2027 123.109 31.6434C121.638 32.9141 114.076 39.3005 109.639 40.2236C108.742 40.4175 108.063 40.3032 107.627 39.8838C107.117 39.3928 106.963 38.5078 107.17 37.2522C107.229 36.9989 107.275 36.763 107.319 36.5343C107.424 35.997 107.521 35.4937 107.724 34.9744C107.966 33.7355 107.737 32.7506 107.036 32.0758C106.483 31.5359 104.689 31.2338 103.725 31.0713C103.345 31.0073 103.072 30.9613 102.901 30.9157L102.647 30.8499L102.718 30.6755C102.735 30.6342 104.369 26.5701 102.849 25.1665C102.112 24.4859 101.244 24.2591 100.402 24.5275C98.9723 24.9827 97.9718 26.5187 97.7251 28.6373C97.6498 29.3953 97.7052 30.496 98.3977 31.4183L98.4267 31.4447C98.6246 31.6759 98.837 31.8699 99.0849 32.0479L99.3743 32.2552L97.9621 33.1674C93.3194 36.1779 88.9339 39.0208 83.5426 39.2437C82.4998 39.2893 79.8551 39.2492 77.8972 37.8789C76.3565 36.8603 75.8413 35.7271 76.1774 34.0912L76.1879 34.0398L76.2313 33.9794L76.4752 33.7514L76.5259 33.7438C77.5748 33.5882 79.5592 33.0961 81.3177 31.5131C83.5795 29.4966 84.0821 27.3969 83.8259 26.2119C83.6681 25.4824 83.2256 24.9719 82.5794 24.7747C81.2243 24.36 79.2436 25.2906 77.1461 27.3314C75.5515 28.8822 74.4898 30.6708 74.0763 32.5038L74.0643 32.5548L74.0202 32.6135C71.0274 35.3623 68.225 37.5402 65.436 39.2857C62.5232 41.1173 60.0544 42.1464 57.8885 42.4304C56.2367 42.628 55.0336 42.3714 54.2061 41.647C53.409 40.9769 52.9313 39.7977 52.7884 38.1423C52.6024 35.6782 53.1506 32.4286 54.4181 28.4828L54.4424 28.4079L54.5263 28.3445C58.9255 26.6747 62.7961 23.4616 65.7541 19.0396C68.2355 15.3308 69.9018 11.0032 70.2108 7.46303C70.3381 6.11519 70.336 3.69597 68.8937 2.62421C67.8646 1.85748 66.7259 2.2906 65.9523 2.78885C64.3111 3.84034 62.8015 5.97408 61.8093 7.488C59.977 10.2712 58.1939 13.5719 56.1987 17.8766C54.8256 20.7872 53.7194 23.4844 52.8159 26.1221L52.7891 26.2003L52.698 26.2614C49.0818 27.4103 45.1302 27.4551 40.9177 26.4065L40.685 26.349L40.7429 26.1138C40.7751 25.9846 40.8334 25.8674 40.8895 25.7534C42.0256 23.0882 42.9559 20.6624 43.7292 18.3452C44.6269 15.6293 45.2286 13.4069 45.6226 11.352C46.474 7.01761 46.2446 3.84359 44.9406 1.91827C43.8837 0.333795 42.4103 0.00126834 41.3602 0.00126834C40.1427 -0.0276785 38.7586 0.395669 37.236 1.242C32.2868 3.95323 26.3557 11.0021 24.9952 18.1053C24.8649 18.7201 25.2097 19.3746 25.7637 19.5682L25.9591 19.6518C26.199 19.7452 26.4468 19.7325 26.6513 19.6163C26.8698 19.4922 27.0178 19.2646 27.0688 18.9763C28.2864 12.5902 33.8688 5.99217 38.3425 3.54002C39.6574 2.83986 40.7364 2.49974 41.6432 2.49974C42.4302 2.49974 42.991 2.76352 43.3572 3.30518C44.4058 4.87917 43.9271 8.47906 43.5482 10.4847C43.0815 12.9503 42.36 15.2519 41.7155 17.1779C40.816 19.8993 39.7566 22.4951 38.9338 24.4519C38.8397 24.6437 38.7612 24.8275 38.6783 25.0225C38.6124 25.1767 38.5553 25.3105 38.4941 25.4444L38.4037 25.642L38.1989 25.5707C37.532 25.3395 36.8463 25.0739 35.9758 24.711C35.7427 24.6071 35.505 24.6057 35.3024 24.7056C35.0773 24.8152 34.9069 25.0413 34.8338 25.3261L34.7846 25.5512C34.6312 26.1471 34.9507 26.8245 35.4952 27.0662L35.5513 27.0893C36.0847 27.3093 36.6365 27.5362 37.1767 27.7348L37.3956 27.8141L37.3218 28.0381C37.2889 28.1365 37.2548 28.2052 37.1919 28.3015C35.5401 31.8648 33.8985 34.9726 32.1848 37.7812C30.6119 40.3589 29.4768 41.8609 28.8107 42.2451C28.3537 42.4963 28.214 43.1798 28.4963 43.771L28.5976 43.9754C28.7543 44.2682 28.9706 44.4809 29.221 44.5862C29.4526 44.6832 29.7149 44.6684 29.9396 44.5453C31.316 43.7478 33.1705 40.733 33.9621 39.4456C35.6997 36.6031 37.3851 33.4153 39.114 29.6989C39.2685 29.387 39.4215 29.0787 39.5438 28.7559L39.6227 28.5501L39.8329 28.6105C43.9184 29.7875 47.8309 29.9963 51.4616 29.2285L51.8458 29.1464L51.7409 29.5292C50.836 32.8338 50.4756 35.7006 50.6699 38.0497C50.8776 40.5651 51.7047 42.4452 53.1282 43.6379C54.4695 44.7765 56.24 45.2126 58.3925 44.9325C60.7817 44.6123 63.4658 43.5123 66.5982 41.5703C68.9313 40.1223 71.289 38.3554 73.8063 36.1696L74.0817 35.9304L74.1906 36.2803C75.2975 39.8455 79.0417 41.8493 83.9525 41.5095C89.4097 41.1101 98.5146 35.3471 101.175 33.5904C101.607 33.3049 102.129 33.1848 102.645 33.2514L102.804 33.2716C103.211 33.3248 103.674 33.3845 104.056 33.4515C104.436 33.509 104.716 33.6682 104.883 33.9244C105.181 34.3803 105.018 35.0041 104.94 35.3044C104.493 36.7702 104.125 38.841 104.897 40.4255C105.176 41.0352 105.612 41.524 106.195 41.8811C110.197 44.2949 118.36 38.3894 122.745 35.2165C123.686 34.5363 124.482 33.9609 125.061 33.5897C125.804 32.9814 125.902 32.4785 125.85 32.1659Z" fill="#494949"/>
</g>
<path fill-rule="evenodd" clip-rule="evenodd" d="M108.548 16.1789C109.014 15.9915 109.463 15.7454 109.897 15.4404C110.336 15.1303 110.71 14.7927 111.021 14.429V16.0504C111.021 16.2429 111.119 16.3392 111.317 16.3392C111.51 16.3392 111.606 16.2429 111.606 16.0504V14.3968C111.927 14.7663 112.318 15.1031 112.778 15.4082C113.228 15.7132 113.696 15.9567 114.183 16.1387C114.343 16.1977 114.474 16.1655 114.576 16.0421C114.662 15.9354 114.69 15.8485 114.66 15.7812C114.631 15.7146 114.547 15.6596 114.407 15.6166C113.493 15.296 112.738 14.8437 112.144 14.2604H114.215C114.391 14.2604 114.48 14.1721 114.48 13.9956C114.48 13.8194 114.391 13.7307 114.215 13.7307H113.043H111.606V13.121C111.606 12.9285 111.51 12.8319 111.317 12.8319C111.119 12.8319 111.021 12.9285 111.021 13.121V13.7307H108.508C108.332 13.7307 108.243 13.8194 108.243 13.9956C108.243 14.1721 108.332 14.2604 108.508 14.2604H110.483C110.21 14.555 109.881 14.8253 109.495 15.0709C109.115 15.3174 108.72 15.5182 108.307 15.6734C108.061 15.7588 108.013 15.8952 108.163 16.0823C108.259 16.2002 108.388 16.2321 108.548 16.1789Z" fill="#494949"/>
<path fill-rule="evenodd" clip-rule="evenodd" d="M114.078 17.0377H113.244V16.3552C113.244 16.1682 113.15 16.0745 112.963 16.0745C112.775 16.0745 112.682 16.1682 112.682 16.3552V17.0377H111.583C111.406 17.0377 111.317 17.126 111.317 17.3025C111.317 17.4791 111.406 17.5674 111.583 17.5674H112.345C111.97 18.2737 111.507 18.8273 110.956 19.2289C110.86 19.2926 110.808 19.3545 110.8 19.4131C110.792 19.4725 110.822 19.5448 110.892 19.6302C110.956 19.7051 111.017 19.7449 111.073 19.7503C111.129 19.7558 111.197 19.729 111.277 19.6704C111.839 19.226 112.307 18.6457 112.682 17.9285V19.8947C112.682 20.0821 112.775 20.1759 112.963 20.1759C113.15 20.1759 113.244 20.0821 113.244 19.8947V17.8887C113.607 18.5946 114.027 19.1725 114.504 19.6223C114.584 19.6917 114.653 19.721 114.712 19.7105C114.771 19.6993 114.835 19.6541 114.905 19.5741C114.98 19.4829 115.016 19.407 115.013 19.3451C115.011 19.2836 114.964 19.2181 114.873 19.1486C114.359 18.7314 113.92 18.2042 113.557 17.5674H114.656C114.833 17.5674 114.921 17.4791 114.921 17.3025C114.921 17.126 114.833 17.0377 114.656 17.0377H114.078Z" fill="#494949"/>
<path fill-rule="evenodd" clip-rule="evenodd" d="M107.922 19.6175C107.981 19.6367 108.056 19.6107 108.147 19.5416C108.559 19.188 108.928 18.7043 109.255 18.0884V19.8947C109.255 20.0818 109.348 20.1755 109.535 20.1755C109.723 20.1755 109.817 20.0818 109.817 19.8947V18.2976C110.047 18.4955 110.258 18.6855 110.451 18.8675C110.52 18.9369 110.582 18.9637 110.635 18.9474C110.684 18.9369 110.741 18.8899 110.808 18.807C110.875 18.7242 110.911 18.6641 110.916 18.6265C110.922 18.5841 110.892 18.5357 110.828 18.4817C110.517 18.2364 110.181 17.9954 109.817 17.7595V17.567H110.715C110.892 17.567 110.98 17.4787 110.98 17.3025C110.98 17.1256 110.892 17.0373 110.715 17.0373H109.817V16.3549C109.817 16.1678 109.723 16.0741 109.535 16.0741C109.348 16.0741 109.255 16.1678 109.255 16.3549V17.0373H108.532H108.083C107.906 17.0373 107.818 17.1256 107.818 17.3025C107.818 17.4787 107.906 17.567 108.083 17.567H109.022C108.696 18.1717 108.302 18.6641 107.842 19.044C107.767 19.1027 107.723 19.1616 107.71 19.2203C107.696 19.2792 107.711 19.352 107.754 19.4374C107.807 19.5387 107.863 19.5987 107.922 19.6175Z" fill="#494949"/>
<path fill-rule="evenodd" clip-rule="evenodd" d="M118.18 16.1789C118.645 15.9915 119.095 15.7454 119.528 15.4404C119.967 15.1303 120.341 14.7927 120.652 14.429V16.0504C120.652 16.2429 120.751 16.3392 120.949 16.3392C121.141 16.3392 121.238 16.2429 121.238 16.0504V14.3968C121.559 14.7663 121.949 15.1031 122.41 15.4082C122.859 15.7132 123.327 15.9567 123.814 16.1387C123.975 16.1977 124.106 16.1655 124.207 16.0421C124.293 15.9354 124.321 15.8485 124.292 15.7812C124.262 15.7146 124.178 15.6596 124.039 15.6166C123.124 15.296 122.37 14.8437 121.776 14.2604H123.846C124.023 14.2604 124.111 14.1721 124.111 13.9956C124.111 13.8194 124.023 13.7307 123.846 13.7307H122.674H121.238V13.121C121.238 12.9285 121.141 12.8319 120.949 12.8319C120.751 12.8319 120.652 12.9285 120.652 13.121V13.7307H118.14C117.963 13.7307 117.875 13.8194 117.875 13.9956C117.875 14.1721 117.963 14.2604 118.14 14.2604H120.114C119.841 14.555 119.512 14.8253 119.127 15.0709C118.747 15.3174 118.351 15.5182 117.939 15.6734C117.693 15.7588 117.645 15.8952 117.795 16.0823C117.891 16.2002 118.019 16.2321 118.18 16.1789Z" fill="#494949"/>
<path fill-rule="evenodd" clip-rule="evenodd" d="M123.71 17.0377H122.875V16.3552C122.875 16.1682 122.781 16.0745 122.594 16.0745C122.407 16.0745 122.314 16.1682 122.314 16.3552V17.0377H121.214C121.037 17.0377 120.949 17.126 120.949 17.3025C120.949 17.4791 121.037 17.5674 121.214 17.5674H121.976C121.601 18.2737 121.139 18.8273 120.588 19.2289C120.491 19.2926 120.439 19.3545 120.431 19.4131C120.423 19.4725 120.454 19.5448 120.524 19.6302C120.588 19.7051 120.648 19.7449 120.704 19.7503C120.76 19.7558 120.829 19.729 120.909 19.6704C121.471 19.226 121.939 18.6457 122.314 17.9285V19.8947C122.314 20.0821 122.407 20.1759 122.594 20.1759C122.781 20.1759 122.875 20.0821 122.875 19.8947V17.8887C123.239 18.5946 123.659 19.1725 124.135 19.6223C124.215 19.6917 124.285 19.721 124.344 19.7105C124.403 19.6993 124.467 19.6541 124.537 19.5741C124.612 19.4829 124.647 19.407 124.645 19.3451C124.642 19.2836 124.595 19.2181 124.504 19.1486C123.991 18.7314 123.552 18.2042 123.188 17.5674H124.288C124.464 17.5674 124.553 17.4791 124.553 17.3025C124.553 17.126 124.464 17.0377 124.288 17.0377H123.71Z" fill="#494949"/>
<path fill-rule="evenodd" clip-rule="evenodd" d="M117.554 19.6175C117.613 19.6367 117.688 19.6107 117.778 19.5416C118.191 19.188 118.56 18.7043 118.886 18.0884V19.8947C118.886 20.0818 118.98 20.1755 119.167 20.1755C119.354 20.1755 119.448 20.0818 119.448 19.8947V18.2976C119.678 18.4955 119.889 18.6855 120.082 18.8675C120.152 18.9369 120.213 18.9637 120.267 18.9474C120.315 18.9369 120.372 18.8899 120.439 18.807C120.506 18.7242 120.542 18.6641 120.548 18.6265C120.553 18.5841 120.524 18.5357 120.459 18.4817C120.149 18.2364 119.812 17.9954 119.448 17.7595V17.567H120.347C120.524 17.567 120.612 17.4787 120.612 17.3025C120.612 17.1256 120.524 17.0373 120.347 17.0373H119.448V16.3549C119.448 16.1678 119.354 16.0741 119.167 16.0741C118.98 16.0741 118.886 16.1678 118.886 16.3549V17.0373H118.164H117.714C117.538 17.0373 117.45 17.1256 117.45 17.3025C117.45 17.4787 117.538 17.567 117.714 17.567H118.653C118.327 18.1717 117.934 18.6641 117.473 19.044C117.398 19.1027 117.354 19.1616 117.341 19.2203C117.328 19.2792 117.342 19.352 117.385 19.4374C117.439 19.5387 117.495 19.5987 117.554 19.6175Z" fill="#494949"/>
<path fill-rule="evenodd" clip-rule="evenodd" d="M99.6761 19.2759C100.014 19.2759 100.34 19.2028 100.639 19.0621L100.647 20.0633C100.649 20.2109 100.769 20.3296 100.916 20.3296H100.918C101.067 20.3282 101.186 20.2073 101.185 20.0589L101.167 18.0381L100.738 18.3732C100.432 18.6123 100.064 18.7393 99.6761 18.7393C98.7227 18.7393 97.9473 17.9636 97.9473 17.0101C97.9473 16.2043 98.4943 15.5129 99.2777 15.3276L99.5212 15.2701L99.4811 15.0229C99.4659 14.9296 99.4583 14.8355 99.4583 14.7432C99.4583 13.7898 100.234 13.014 101.187 13.014C102.141 13.014 102.916 13.7898 102.916 14.7432C102.916 14.8359 102.909 14.9299 102.894 15.0229L102.853 15.2701L103.097 15.3276C103.88 15.5129 104.427 16.2043 104.427 17.0101C104.427 17.9636 103.652 18.7393 102.699 18.7393C102.55 18.7393 102.43 18.8595 102.43 19.0075C102.43 19.1558 102.55 19.2759 102.699 19.2759C103.948 19.2759 104.965 18.2592 104.965 17.0101C104.965 16.0346 104.352 15.1865 103.45 14.8717C103.452 14.8286 103.453 14.7859 103.453 14.7432C103.453 13.4942 102.437 12.4774 101.187 12.4774C99.9377 12.4774 98.921 13.4942 98.921 14.7432C98.921 14.7859 98.9224 14.8286 98.9246 14.8717C98.0218 15.1865 97.4099 16.0346 97.4099 17.0101C97.4099 18.2592 98.4263 19.2759 99.6761 19.2759Z" fill="#494949"/>
</g>
<defs>
<clipPath id="clip0">
<rect width="160" height="55" fill="white"/>
</clipPath>
</defs>
</svg>
